<svg width="66" height="48" viewBox="0 0 66 48" fill="none" xmlns="http://www.w3.org/2000/svg">
<path d="M36.7686 34.3763C35.8973 33.901 35.8973 33.7426 34.5508 33.2674C33.2462 32.8072 30.409 33.2056 29.2438 33.505C28.0787 33.8044 25.5425 34.5244 23.8062 35.3497C19.5805 37.36 15.5409 39.5921 11.3428 41.6634C10.0755 42.2876 8.56027 42.7414 7.14483 42.2179C5.53849 41.6238 3.86641 38.4301 4.22918 36.7889C4.3055 36.5191 4.48278 36.2891 4.72423 36.1466C8.7971 34.038 12.8628 31.9137 16.9714 29.8765C19.9021 28.4246 22.9048 27.1628 26.1468 26.5054C29.9488 25.7347 32.8486 26.7889 34.7282 30.2915C35.4078 31.5612 36.2141 32.7129 36.7686 34.3763Z" fill="#E46104"/>
<path d="M40.729 41.7426C39.4379 39.5303 38.0684 37.0471 37.8331 34.4856C37.6438 32.4262 38.5991 30.8689 40.0581 29.5343C42.6902 27.1232 45.8933 25.5905 49.125 24.2376C53.205 22.5283 57.224 20.9901 61.323 19.3268C61.8418 19.1161 62.3583 18.9101 62.828 18.6139C63.3642 18.2757 63.982 18.2852 64.2537 18.9307C64.7012 19.9929 65.3412 21.0258 65.7587 22.099C66.3218 23.5469 65.8783 24.7794 64.6498 25.7426C63.0212 27.0186 61.3119 27.9913 59.2272 28.6281L55.2446 30.1418C52.6482 31.3664 50.0573 32.3961 47.5408 33.7426C45.5606 34.8016 43.4775 35.9604 42.0898 37.7877C41.2913 38.8372 40.6561 40.2947 40.729 41.7426Z" fill="#E46104"/>
<path d="M3.65964 37.2278C2.34241 34.4666 0.89528 31.5541 1.31983 28.3747C1.51706 26.8935 2.51587 25.821 3.56142 24.8412C6.30835 22.2686 9.63667 20.6511 13.0331 19.1581C16.6497 17.566 20.2854 16.004 23.9068 14.4159C24.352 14.2177 24.7781 13.9791 25.1796 13.703C25.7531 13.3117 26.1301 13.2389 26.4042 14.0048C26.721 14.9062 27.1717 15.7616 27.5076 16.6575C28.2743 18.7003 27.8466 20.6844 25.9147 21.7054C23.6755 22.8888 21.1107 23.8543 18.786 24.8737C14.5198 26.7438 10.2513 28.2915 6.7329 31.4987C5.11706 32.9696 3.69053 34.8009 3.65964 37.2278Z" fill="#E46104"/>
<path d="M2.47151 24.1584C1.86953 22.7778 1.04577 21.2015 0.491313 19.8019C-0.257994 17.9009 0.0509171 15.7797 1.52102 14.4158C3.0529 12.9948 4.7424 11.71 6.59032 10.7722C10.6751 8.69856 14.9396 6.90608 19.1052 4.99004C19.818 4.66292 20.5309 4.34925 21.3658 3.89856C21.9012 5.16826 22.6822 6.36113 23.0656 7.60391C23.4291 8.79202 22.9285 10.1005 21.8775 10.693C19.9297 11.7908 17.9091 12.7334 15.8576 13.6237C12.584 15.0439 9.25646 16.3397 6.3527 18.4554C5.63508 18.9782 4.88814 19.5358 4.2624 20.1671C3.26359 21.173 2.66795 22.6621 2.47151 24.1584Z" fill="#E46104"/>
<path d="M7.8949 7.36634C9.92906 7.36634 11.5781 5.71733 11.5781 3.68317C11.5781 1.64901 9.92906 0 7.8949 0C5.86074 0 4.21173 1.64901 4.21173 3.68317C4.21173 5.71733 5.86074 7.36634 7.8949 7.36634Z" fill="#E46104"/>
<path d="M47.5781 48C49.6122 48 51.2612 46.351 51.2612 44.3168C51.2612 42.2827 49.6122 40.6337 47.5781 40.6337C45.5439 40.6337 43.8949 42.2827 43.8949 44.3168C43.8949 46.351 45.5439 48 47.5781 48Z" fill="#E46104"/>
<path d="M53.7563 44.8317C55.7904 44.8317 57.4395 43.1827 57.4395 41.1485C57.4395 39.1143 55.7904 37.4653 53.7563 37.4653C51.7221 37.4653 50.0731 39.1143 50.0731 41.1485C50.0731 43.1827 51.7221 44.8317 53.7563 44.8317Z" fill="#E46104"/>
<path d="M35.818 34.2971C36.8683 34.7264 38.0469 37.1795 38.797 38.7937C39.7649 40.8824 40.8081 42.9307 41.917 45.1486C40.7606 45.9692 39.395 47.0298 37.7713 47.2919C36.1024 47.562 34.8968 46.6915 34.1721 45.2325C32.7796 42.423 31.4394 39.5882 30.0818 36.762C29.7649 36.107 29.4251 35.4599 29.1756 34.7818C29.0489 34.4381 28.8477 34.1387 29.1645 33.9803C29.4814 33.8218 31.4616 33.505 32.7289 33.505C33.9962 33.505 34.7653 33.8678 35.818 34.2971Z" fill="#E46104"/>
</svg>
